# xmcd
#
# Track frame offsets:
#	183
#	14278
#	25350
#	47173
#	63395
#	81365
#	95008
#	109888
#	128665
#	144588
#	158300
#	171883
#	184253
#
# Disc length: 2620 seconds
#
# Revision: 1
# Processed by: cddbd v1.5.2PL0 Copyright (c) Steve Scherf et al.
# Submitted via: audiograbber 1.83.01
#
DISCID=ab0a3a0d
DTITLE=WEST VIRGINIAN RAILROAD - DANCE THE LAST DANCE
DYEAR=1900
DGENRE=
TTITLE0=JUST IN CASE
TTITLE1=ALONE ALONG THE HIGHWAY
TTITLE2=MORNING MISTY BLEU
TTITLE3=RIO GRANDE
TTITLE4=THE BIRDS SONG
TTITLE5=LIPTON ICE TEA
TTITLE6=HOMETOWN DREAMS
TTITLE7=NEW FLOWER
TTITLE8=MUSIC AND THE BAND
TTITLE9=WHISKEY TRIP
TTITLE10=SHE'S ALL OVER ME
TTITLE11=ESTOY SANTADA AQUI
TTITLE12=DANCE THE LAST DANCE
EXTD=
EXTT0=
EXTT1=
EXTT2=
EXTT3=
EXTT4=
EXTT5=
EXTT6=
EXTT7=
EXTT8=
EXTT9=
EXTT10=
EXTT11=
EXTT12=
PLAYORDER=
